#!OML:ASF F:\VICON\USERDATA\INSTALL\rory3\rory3.ASF
:FULLY-SPECIFIED
:DEGREES
1
root 0.0294067 17.6304 -26.0174 -1.81212 -6.27325 -2.23239
lowerback 18.8244 -1.89634 0.855722
upperback 0.629095 -1.93553 3.87126
thorax -9.7874 -0.860914 4.27482
lowerneck -8.42404 -7.35067 -5.71092
upperneck 30.5879 -8.87113 -2.44946
head 11.5018 -4.98752 -1.02366
rclavicle 5.66536e-015 7.15625e-015
rhumerus -28.4584 -40.7809 -40.6691
rradius 88.2595
rwrist 5.24499
rhand -12.7059 7.77426
rfingers 7.12502
rthumb 13.3767 -21.7763
lclavicle 5.66536e-015 7.15625e-015
lhumerus -51.1633 11.7286 75.3591
lradius 45.4772
lwrist 8.01725
lhand -9.19208 52.3652
lfingers 7.12502
lthumb 16.7615 81.6616
rfemur 2.61042 5.1969 28.1689
rtibia 24.1106
rfoot -21.531 -19.2581
rtoes 14.6334
lfemur -27.0474 -0.804769 -15.2944
ltibia 41.7926
lfoot -11.4129 6.32694
ltoes -11.797
2
root 0.0346751 17.629 -25.9562 -1.45102 -6.69093 -2.35828
lowerback 18.5547 -1.72162 0.963249
upperback 0.691151 -1.68853 3.92065
thorax -9.58553 -0.751333 4.18534
lowerneck -7.93577 -7.55856 -6.0656
upperneck 30.0278 -9.23183 -2.07289
head 11.2361 -5.14336 -0.834175
rclavicle 1.96797e-014 -1.03368e-014
rhumerus -27.7475 -38.7126 -42.175
rradius 87.2726
rwrist 7.66291
rhand -13.5586 7.99414
rfingers 7.12502
rthumb 12.5547 -21.6087
lclavicle 1.96797e-014 -1.03368e-014
lhumerus -50.8525 11.6878 75.5512
lradius 44.973
lwrist 7.80102
lhand -9.25356 52.51
lfingers 7.12502
lthumb 16.7023 81.8114
rfemur 2.61494 5.49962 28.2501
rtibia 23.7445
rfoot -21.3579 -19.2303
rtoes 14.3113
lfemur -27.6631 -0.739511 -15.0362
ltibia 40.6167
lfoot -10.8967 6.6794
ltoes -11.5635
3
root 0.0375565 17.631 -25.8857 -1.76761 -7.30067 -2.4919
lowerback 19.464 -1.56537 0.84598
upperback 0.485665 -1.45904 4.01566
thorax -10.3322 -0.619164 4.35154
lowerneck -7.27874 -7.54507 -6.2576
upperneck 30.1374 -9.21072 -2.15024
head 11.1569 -5.17186 -0.801051
rclavicle 1.21259e-014 7.95139e-016
rhumerus -27.5949 -35.707 -43.3036
rradius 86.2011
rwrist 9.58017
rhand -13.7887 8.32664
rfingers 7.12502
rthumb 12.3328 -21.2896
lclavicle 1.21259e-014 7.95139e-016
lhumerus -51.5365 11.7824 75.4975
lradius 44.6396
lwrist 7.59474
lhand -9.32786 52.0961
lfingers 7.12502
lthumb 16.6308 81.4036
rfemur 3.44558 5.81094 28.3994
rtibia 23.3
rfoot -21.3231 -19.1197
rtoes 14.1936
lfemur -27.3323 -0.759402 -14.6858
ltibia 39.3763
lfoot -10.6074 7.21688
ltoes -10.6463
4
root 0.0370604 17.6236 -25.8423 -1.69514 -7.16505 -2.6177
lowerback 19.2477 -1.70984 1.10497
upperback 0.623409 -1.6212 3.86276
thorax -10.058 -0.718796 4.06058
lowerneck -6.57353 -7.48353 -6.18813
upperneck 29.8713 -9.23904 -1.94996
head 10.9213 -5.15859 -0.700734
rclavicle 4.47266e-015 2.70347e-014
rhumerus -27.129 -33.5944 -45.0312
rradius 84.89
rwrist 11.5542
rhand -13.9542 8.70517
rfingers 7.12502
rthumb 12.1733 -20.9206
lclavicle 4.47266e-015 2.70347e-014
lhumerus -51.3673 11.7535 75.2235
lradius 44.2937
lwrist 7.36873
lhand -9.12748 51.921
lfingers 7.12502
lthumb 16.8237 81.2122
rfemur 3.76981 5.64418 28.522
rtibia 22.8341
rfoot -21.24 -19.2056
rtoes 13.833
lfemur -27.6764 -1.33844 -14.3425
ltibia 38.0867
lfoot -9.93692 7.65476
ltoes -9.94523
5
root 0.0495444 17.6336 -25.7547 -1.6072 -7.94347 -2.57747
lowerback 19.6536 -1.24533 1.2552
upperback 0.713501 -0.978329 3.71179
thorax -10.2268 -0.423518 3.6437
lowerneck -7.87739 -7.75789 -5.79172
upperneck 30.3812 -9.5851 -2.06415
head 11.3513 -5.27349 -0.928042
rclavicle -2.74323e-014 3.33958e-014
rhumerus -27.0127 -32.3596 -46.0326
rradius 83.2874
rwrist 13.685
rhand -14.4989 8.73196
rfingers 7.12502
rthumb 11.648 -20.9243
lclavicle -2.74323e-014 3.33958e-014
lhumerus -50.8496 11.2245 75.5516
lradius 44.0656
lwrist 7.17673
lhand -8.92157 52.4031
lfingers 7.12502
lthumb 17.0219 81.6773
rfemur 4.25046 5.89273 28.2914
rtibia 22.3233
rfoot -21.2016 -18.6582
rtoes 13.4743
lfemur -27.6678 -1.34452 -14.1721
ltibia 36.7408
lfoot -9.28274 8.43982
ltoes -9.8716
6
root 0.0467569 17.6332 -25.7132 -1.81046 -7.70883 -2.60785
lowerback 20.1738 -1.36898 1.12996
upperback 0.594742 -1.1441 3.73349
thorax -10.639 -0.488243 3.81342
lowerneck -6.94461 -7.66288 -6.00653
upperneck 30.2107 -9.505 -1.95173
head 11.1191 -5.25682 -0.791521
rclavicle 1.10325e-014 1.27222e-014
rhumerus -26.4902 -30.485 -47.4491
rradius 81.2803
rwrist 15.6236
rhand -15.1853 8.77347
rfingers 7.12502
rthumb 10.986 -20.9191
lclavicle 1.10325e-014 1.27222e-014
lhumerus -51.3638 11.3848 75.4222
lradius 43.9859
lwrist 7.02168
lhand -8.92886 52.4834
lfingers 7.12502
lthumb 17.0149 81.7582
rfemur 4.92405 5.70699 28.3721
rtibia 21.8303
rfoot -21.2636 -18.7077
rtoes 13.3769
lfemur -27.7263 -1.71991 -13.958
ltibia 35.3879
lfoot -8.16452 8.63855
ltoes -10.5217
7
root 0.0425052 17.6313 -25.6617 -1.38391 -7.66252 -2.72368
lowerback 19.9221 -1.3755 1.23992
upperback 0.742382 -1.1469 3.69026
thorax -10.3356 -0.501589 3.68593
lowerneck -7.62722 -7.776 -5.88196
upperneck 30.5023 -9.62436 -2.0235
head 11.3583 -5.29879 -0.895908
rclavicle -2.76311e-014 4.53229e-014
rhumerus -25.3289 -29.6733 -49.1363
rradius 78.9182
rwrist 17.2315
rhand -15.7892 8.99092
rfingers 7.12502
rthumb 10.4035 -20.7317
lclavicle -2.76311e-014 4.53229e-014
lhumerus -50.7962 11.3735 75.5046
lradius 43.7836
lwrist 7.03845
lhand -8.92524 52.5712
lfingers 7.12502
lthumb 17.0184 81.8458
rfemur 4.9888 5.66285 28.4633
rtibia 21.1952
rfoot -20.98 -18.7227
rtoes 12.5028
lfemur -28.3823 -2.01841 -13.5624
ltibia 34.0524
lfoot -6.80406 8.94163
ltoes -11.3152
8
root 0.0448168 17.6262 -25.5985 -1.5676 -7.97856 -2.98037
lowerback 19.9054 -1.20612 1.6575
upperback 1.23631 -0.872062 3.47716
thorax -9.79893 -0.405057 3.11373
lowerneck -8.60058 -8.00426 -5.50095
upperneck 30.7954 -10.0062 -1.8824
head 11.6578 -5.3996 -1.01433
rclavicle 6.36111e-015 1.59028e-015
rhumerus -25.5983 -27.116 -50.2947
rradius 77.5404
rwrist 16.5715
rhand -16.834 7.74414
rfingers 7.12502
rthumb 9.39554 -22.0265
lclavicle 6.36111e-015 1.59028e-015
lhumerus -49.7929 10.9026 75.5539
lradius 43.5097
lwrist 6.98996
lhand -8.86418 52.6856
lfingers 7.12502
lthumb 17.0772 81.955
rfemur 5.76073 5.7483 28.7257
rtibia 20.5804
rfoot -20.4948 -18.7437
rtoes 10.5506
lfemur -28.2334 -2.4187 -12.9679
ltibia 32.7507
lfoot -5.31385 9.5492
ltoes -12.4763
9
root 0.0604272 17.635 -25.4921 -1.5127 -8.96214 -3.09811
lowerback 19.7346 -0.957758 1.58558
upperback 1.15253 -0.551601 3.6137
thorax -9.80851 -0.246619 3.21367
lowerneck -7.7435 -7.92406 -6.16821
upperneck 30.7094 -9.89829 -1.61132
head 11.5132 -5.4028 -0.750947
rclavicle -1.35174e-014 -3.02153e-014
rhumerus -24.2521 -27.5498 -51.5093
rradius 74.129
rwrist 18.856
rhand -15.9419 9.02661
rfingers 7.12502
rthumb 10.2562 -20.7033
lclavicle -1.35174e-014 -3.02153e-014
lhumerus -50.3219 11.2618 75.5967
lradius 43.3645
lwrist 6.67579
lhand -8.65088 52.6262
lfingers 7.12502
lthumb 17.2825 81.8777
rfemur 6.39906 6.10837 28.6216
rtibia 19.9011
rfoot -20.1749 -18.2668
rtoes 9.02333
lfemur -28.0357 -2.67117 -12.4797
ltibia 31.501
lfoot -4.25196 10.6144
ltoes -14.1591
10
root 0.0523238 17.6286 -25.4485 -1.39398 -8.69117 -3.29989
lowerback 19.3761 -0.812898 1.88805
upperback 1.84498 -0.356087 3.43997
thorax -8.85551 -0.178488 2.76446
lowerneck -8.87843 -8.30135 -5.7501
upperneck 30.7159 -10.5218 -1.3186
head 11.747 -5.58174 -0.851276
rclavicle -1.89839e-014 -4.77083e-015
rhumerus -23.0137 -28.4782 -52.9707
rradius 71.2907
rwrist 19.8914
rhand -16.0524 9.06941
rfingers 7.12502
rthumb 10.1496 -20.6658
lclavicle -1.89839e-014 -4.77083e-015
lhumerus -48.4724 10.8914 75.7963
lradius 42.9518
lwrist 6.29911
lhand -8.43003 52.1646
lfingers 7.12502
lthumb 17.495 81.3974
rfemur 6.86028 5.89563 28.8691
rtibia 19.1344
rfoot -19.9635 -18.2815
rtoes 9.00203
lfemur -28.4295 -3.05559 -11.9798
ltibia 30.2917
lfoot -3.73675 10.6087
ltoes -13.5617
11
root 0.0539632 17.6298 -25.3779 -1.35732 -8.80929 -3.49671
lowerback 20.5527 -0.645518 1.65507
upperback 1.17179 -0.0828762 3.69742
thorax -10.2612 -0.0222372 3.15723
lowerneck -8.11305 -8.42692 -6.22745
upperneck 31.1988 -10.6262 -1.49828
head 11.8132 -5.71363 -0.832825
rclavicle -6.36111e-015 -7.95139e-016
rhumerus -23.6335 -26.8912 -53.0225
rradius 68.817
rwrist 20.3745
rhand -16.0434 8.66701
rfingers 7.12502
rthumb 10.1583 -21.0678
lclavicle -6.36111e-015 -7.95139e-016
lhumerus -49.4725 10.8687 75.9724
lradius 42.8964
lwrist 6.06991
lhand -8.64934 50.1728
lfingers 7.12502
lthumb 17.284 79.4242
rfemur 7.57103 5.86823 29.0261
rtibia 18.2364
rfoot -19.85 -18.0858
rtoes 9.66079
lfemur -28.524 -3.61234 -11.3943
ltibia 29.1718
lfoot -5.16857 11.2777
ltoes -8.17194
12
root 0.059839 17.6291 -25.3002 -1.14722 -8.77402 -3.63853
lowerback 19.5975 -0.590435 2.10935
upperback 1.84343 -4.35858e-005 3.50368
thorax -8.99097 -0.0151389 2.61786
lowerneck -8.69037 -8.67067 -6.24449
upperneck 30.8048 -11.0571 -1.00426
head 11.8182 -5.83658 -0.726253
rclavicle -1.78906e-014 -2.70347e-014
rhumerus -22.2452 -27.5616 -54.5368
rradius 65.8919
rwrist 21.0769
rhand -15.7139 8.24613
rfingers 7.12502
rthumb 10.4761 -21.4728
lclavicle -1.78906e-014 -2.70347e-014
lhumerus -47.9957 10.7223 76.1327
lradius 42.6132
lwrist 6.01201
lhand -8.44506 51.3413
lfingers 7.12502
lthumb 17.4806 80.5753
rfemur 8.02674 5.72641 29.0698
rtibia 17.4758
rfoot -19.7915 -17.8867
rtoes 9.80903
lfemur -28.8223 -4.31103 -10.8757
ltibia 28.1452
lfoot -5.10615 11.7153
ltoes -9.07256
